<?xml version="1.0" encoding="utf-8"?>
<!-- Generator: Adobe Illustrator 23.1.0, SVG Export Plug-In . SVG Version: 6.00 Build 0)  -->
<svg version="1.1" id="Layer_1" xmlns="http://www.w3.org/2000/svg" xmlns:xlink="http://www.w3.org/1999/xlink" x="0px" y="0px"
	 viewBox="0 0 99 16" style="enable-background:new 0 0 99 16;" xml:space="preserve">
<style type="text/css">
	.st0{fill-rule:evenodd;clip-rule:evenodd;}
	.st1{fill:#FFFFFF;stroke:#000000;stroke-miterlimit:10;}
	.st2{fill:#FFFFFF;}
	.st3{font-family:'MyriadPro-Regular';}
	.st4{font-size:12px;}
</style>
<path class="st0" d="M46.2,1.1c-2.3,0.6-3.3,2.4-2.7,4.5c0.3,0.9,1.1,1.9,2.3,2.5c2.2,1.3,2.8,1.8,3.2,2.5c0.3,0.6,0.3,0.9,0.2,1.4
	c-0.4,1.4-1.3,2.1-2.7,2.1s-2.4-0.8-2.6-2.1c-0.1-0.5-0.2-0.7-0.4-0.7c-0.3,0-0.3,0.1-0.3,1.5v1.5l0.9,0.3c1.4,0.5,3.4,0.4,4.6-0.1
	c2.3-1.1,3.2-3.2,2.2-5.3c-0.4-0.8-1.4-1.6-3.1-2.6C46,5.5,45.2,4.8,45.1,4c-0.2-1.2,0.9-2.2,2.4-2.2c1.2,0,1.7,0.3,2.1,1.2
	c0.3,0.5,0.4,0.7,0.8,0.7c0.3,0,0.4-0.1,0.3-0.4c-0.1-0.2-0.1-0.7-0.1-1.2c0-0.6-0.1-0.8-0.3-0.9C49.8,1,46.8,0.9,46.2,1.1z
	 M0.5,1.6c0,0.2,0.1,0.3,0.4,0.3c0.8,0,0.9,0.2,1,5.2C2,11.5,2,11.9,2.4,12.5c0.5,0.9,1.2,1.5,2.2,2c0.7,0.3,1.2,0.4,2.6,0.4
	c1.6,0,1.8,0,2.7-0.5c0.5-0.3,1.2-0.8,1.5-1.1c1-1.2,1.1-1.8,1.2-6.6c0.1-4.7,0.1-4.8,0.9-4.8c0.2,0,0.3-0.1,0.3-0.3
	c0-0.3-0.1-0.3-2.1-0.3c-1.9,0-2.1,0-2.1,0.3S9.7,1.9,10.2,2c0.9,0.1,1,0.4,1,4.7s-0.1,5.2-1.1,6.1c-0.9,0.8-1.6,1.1-2.7,1.1
	c-1.7,0-2.9-0.8-3.3-2.2C4,11.2,4,9.5,4,6.6l0.1-4.4L4.7,2C5,1.9,5.3,1.7,5.3,1.5S5.1,1.2,2.9,1.2C0.6,1.2,0.5,1.2,0.5,1.6z
	 M16.6,1.6c0,0.3,0.1,0.3,0.5,0.3c0.9,0,1.4,0.3,1.6,1.1c0.1,0.4,0.2,2.4,0.1,5.3c-0.1,5.1-0.1,5.4-1.2,5.7
	c-0.3,0.1-0.5,0.2-0.5,0.4c0,0.3,0.2,0.3,2.4,0.3s2.4,0,2.4-0.3c0-0.2-0.2-0.4-0.8-0.5c-0.7-0.2-0.8-0.3-1-0.9
	c-0.2-0.7-0.3-8.5-0.1-8.5c0.1,0,0.7,0.7,1.5,1.6c0.7,0.9,2.8,3.2,4.6,5.1c2.8,3,3.3,3.5,3.7,3.5h0.5V8.6c0-4.3,0.1-6.2,0.2-6.3
	C30.6,2.2,31,2,31.3,2c0.3-0.1,0.6-0.2,0.6-0.4s-0.4-0.3-2.4-0.3c-2.3,0-2.4,0-2.4,0.3S27.2,2,27.5,2c0.2,0,0.6,0.2,0.9,0.4l0.5,0.4
	L29,7c0,2.3,0,4.2-0.1,4.2s-0.6-0.5-1.2-1.2c-0.6-0.6-2.2-2.4-3.6-3.9C23,4.4,21.5,2.8,21,2.2l-0.8-1h-1.8
	C16.7,1.2,16.6,1.2,16.6,1.6z M34.8,1.6c0,0.3,0.1,0.3,0.5,0.3c0.3,0,0.6,0.1,0.8,0.2c0.3,0.2,0.3,0.5,0.4,5.3c0.1,6,0,6.3-1,6.5
	c-0.5,0.1-0.7,0.2-0.7,0.4c0,0.3,0.2,0.3,2.6,0.3c2.5,0,2.6,0,2.6-0.3c0-0.2-0.1-0.3-0.4-0.3c-0.2,0-0.6-0.1-0.7-0.2
	c-0.3-0.2-0.3-0.5-0.4-5.7c0-5.3,0-5.5,0.3-5.8c0.2-0.2,0.5-0.4,0.8-0.4S40,1.8,40,1.6c0-0.3-0.1-0.3-2.6-0.3S34.8,1.2,34.8,1.6z
	 M52.9,1.6c0.1,0.2,0.2,0.3,0.5,0.3c0.2,0,0.6,0.2,0.8,0.4s1.4,3.1,2.7,6.4l2.3,6l0.6,0.1l0.6,0.1l1.6-4.3c0.9-2.4,1.7-4.5,1.8-4.7
	c0.2-0.4,0.2-0.3,0.8,1c0.3,0.8,1.1,2.9,1.8,4.7l1.2,3.2h0.5c0.3,0,0.6-0.1,0.6-0.2c0-0.1,0.8-2.2,1.8-4.5c0.9-2.4,1.9-5,2.3-5.8
	c0.7-1.9,0.9-2.1,1.5-2.3c0.3-0.1,0.5-0.3,0.5-0.4c0-0.2-0.3-0.3-2.1-0.3c-2,0-2.1,0-2.1,0.3s0.1,0.3,0.4,0.3c0.7,0,1,0.2,1,0.6
	c0,0.3-3.3,9.3-3.5,9.5c-0.1,0.1-3.1-8.2-3.2-9s0.2-1.1,0.9-1.1c0.3,0,0.4-0.1,0.4-0.3c0-0.3-0.1-0.3-2.7-0.3c-2.6,0-2.7,0-2.7,0.3
	c0,0.2,0.1,0.3,0.3,0.3c0.5,0,1.3,0.5,1.4,1c0.3,0.8,0.1,1.5-1.5,5.7l-1.3,3.5l-0.3-0.7c-0.2-0.4-1-2.6-1.8-4.8
	c-1.7-4.5-1.7-4.7-0.6-4.7c0.4,0,0.5-0.1,0.5-0.3c0-0.3-0.1-0.3-2.6-0.3C52.9,1.2,52.8,1.2,52.9,1.6z M88,1.7c0,0,0,0.2,0,0.3
	s0.2,0.1,0.2,0.1c0.1,0,0.2,0.1,0.3,0.1c0.5,0.1,0.9,0.2,1,0.6c0.1,0.2,0.1,1,0.1,5.4c0,4.6,0,5.1-0.1,5.4c-0.2,0.4-0.4,0.6-1.1,0.8
	c0,0-0.3,0.1-0.4,0.2c0-0.1,0,0.1,0,0.1s0,0.2,0.1,0.2c0.1,0.1,0.3,0,0.3,0h1.7H93c0,0,0.1,0,0.2-0.1s0-0.2,0-0.2s0-0.2-0.1-0.2
	c-0.1-0.1-0.4-0.1-0.4-0.1c-0.6-0.2-1-0.4-1.1-0.7s-0.1-0.9-0.1-2.3V9.2c0.1,0,0.1,0.1,0.2,0.1C92,9.5,92.4,9.8,94,9.9
	c1.9,0.1,3-0.8,3.7-1.8s0.9-2.5,0.4-4.1s-1.9-2.6-4-2.7c-1.1-0.1-2.6,0-3.5,0h-0.2c-0.8,0-1.7,0.1-2.2,0.2l0,0c-0.1,0-0.1,0-0.2,0.1
	C88,1.6,88,1.7,88,1.7z M95.6,8c0.8-0.7,0.8-1.8,0.8-2.5c-0.1-1.1-0.5-3.3-3.1-3.3c-0.6,0-1.8,0.1-1.8,0.9c0,0.1-0.1,1.2,0,2.7v2.5
	l0.3,0.1l0,0c0.1,0.1,0.3,0.2,0.6,0.2C93.4,9,94.9,8.8,95.6,8z M79.7,1.4C79.9,1.3,80,1.3,80,1.3s0.3-0.1,0.4,0c0,0,0.1,0.3,0.4,1
	c0,0.1,0.1,0.3,0.2,0.4c0.4,1,0.9,2.4,1.2,3.1C82.5,6.5,83,8,83.4,9s0.9,2.4,1.2,3c0.2,0.6,0.5,1.2,0.6,1.3c0,0.1,0.1,0.1,0.1,0.2
	c0.2,0.3,0.4,0.7,0.9,0.8l0.4,0.1c0.1,0.1,0.1,0.2,0.1,0.2v0.2v0.1h-0.1h-2.9h-2.1h-0.1l-0.1-0.1v-0.2c0,0,0-0.1,0.1-0.2
	c0.1-0.1,0.4-0.1,0.4-0.1c0.6-0.1,0.9-0.6,1-0.9c0,0,0,0,0-0.1c0.1-0.3,0.1-0.5-0.5-2c-0.4-1-0.5-1.3-0.6-1.3s-1.1,0-2.4,0h-2.3
	L77,10.5c-0.4,1.1-0.7,2.1-0.8,2.4c-0.1,0.6,0,1.2,0.9,1.4c0,0,0.3,0,0.4,0.1s0.1,0.2,0.1,0.2v0.2c0,0,0,0.1-0.1,0.1s-0.2,0-0.2,0
	h-2.2H73c0,0-0.1,0-0.2,0s-0.1-0.1-0.1-0.1v-0.1c0,0,0-0.1,0.1-0.2c0.1-0.1,0.4-0.1,0.4-0.1c0.6-0.1,0.9-0.7,1.1-1v-0.1
	c0.1-0.1,0.4-0.9,0.7-1.8c0.3-0.8,0.7-1.8,0.8-2.1c0.4-1,0.8-2,1.4-3.6C77.5,5,78,3.7,78.3,3.1l0.5-1.2L79.7,1.4z M79.6,4.4
	c0.1,0.3,0.3,0.7,0.4,0.9c0.1,0.2,0.3,0.8,0.6,1.4c0.2,0.5,0.5,1.2,0.6,1.5s0.2,0.5,0.2,0.5s-0.8,0-1.8,0c-1.2,0-1.8,0-1.8-0.1
	c0,0,0-0.2,0.1-0.3C77.8,8.1,78.1,7,79,4.6c0.1-0.4,0.2-0.7,0.3-0.7C79.3,3.8,79.4,3.9,79.6,4.4z"/>
<path d="M43.5,5.6L43.5,5.6L43.5,5.6L43.5,5.6z M46.2,1.1L46.2,1.1L46.2,1.1L46.2,1.1z M45.8,8.1L45.8,8.1L45.8,8.1L45.8,8.1z
	 M49,10.6L49,10.6L49,10.6L49,10.6z M49.2,12.1L49.2,12.1L49.2,12.1L49.2,12.1z M43.9,12.1L43.9,12.1L43.9,12.1L43.9,12.1z
	 M43.1,14.3L43.1,14.3L43.1,14.3L43.1,14.3L43.1,14.3z M44,14.6L44,14.6L44,14.6L44,14.6z M48.7,14.5L48.7,14.5L48.7,14.5L48.7,14.5
	z M50.9,9.2L50.9,9.2L50.9,9.2L50.9,9.2z M47.8,6.6L47.8,6.6L47.8,6.6L47.8,6.6z M45.1,4L45.1,4L45.1,4L45.1,4z M47.5,1.7L47.5,1.7
	L47.5,1.7L47.5,1.7z M49.6,2.9L49.6,2.9L49.6,2.9L49.6,2.9z M50.4,3.6L50.4,3.6L50.4,3.6L50.4,3.6z M50.7,3.2L50.7,3.2L50.7,3.2
	L50.7,3.2z M50.6,2.1L50.6,2.1L50.6,2.1L50.6,2.1z M50.3,1.2L50.3,1.2L50.3,1.2L50.3,1.2z M1.9,7.2L1.9,7.2L1.9,7.2L1.9,7.2z
	 M2.4,12.5L2.4,12.5L2.4,12.5L2.4,12.5z M4.6,14.5L4.6,14.5L4.6,14.5L4.6,14.5z M7.2,14.9L7.2,14.9L7.2,14.9L7.2,14.9z M9.9,14.5
	L9.9,14.5L9.9,14.5L9.9,14.5z M11.4,13.3L11.4,13.3L11.4,13.3L11.4,13.3z M12.6,6.7L12.6,6.7L12.6,6.7L12.6,6.7z M13.5,1.9L13.5,1.9
	L13.5,1.9L13.5,1.9z M10.2,1.9L10.2,1.9L10.2,1.9L10.2,1.9z M11.2,6.7L11.2,6.7L11.2,6.7L11.2,6.7z M10.2,12.7L10.2,12.7L10.2,12.7
	L10.2,12.7z M4.2,11.7L4.2,11.7L4.2,11.7L4.2,11.7z M4,6.6L4,6.6L4,6.6L4,6.6z M4.1,2.2L4.1,2.2L4.1,2.2L4.1,2.2L4.1,2.2z M4.7,2
	L4.7,2L4.7,2L4.7,2z M5.3,1.5L5.3,1.5L5.3,1.5L5.3,1.5z M18.7,3L18.7,3L18.7,3L18.7,3z M18.8,8.3L18.8,8.3L18.8,8.3L18.8,8.3z
	 M17.6,13.9L17.6,13.9L17.6,13.9L17.6,13.9z M21.2,13.9L21.2,13.9L21.2,13.9L21.2,13.9z M20.3,13L20.3,13L20.3,13L20.3,13z
	 M20.2,4.5L20.2,4.5L20.2,4.5L20.2,4.5z M21.7,6.1L21.7,6.1L21.7,6.1L21.7,6.1z M26.3,11.2L26.3,11.2L26.3,11.2L26.3,11.2z
	 M30.5,14.7L30.5,14.7L30.5,14.7L30.5,14.7L30.5,14.7z M30.5,8.6L30.5,8.6L30.5,8.6L30.5,8.6z M30.8,2.2L30.8,2.2L30.8,2.2L30.8,2.2
	z M31.5,1.9L31.5,1.9L31.5,1.9L31.5,1.9z M29.7,1.3L29.7,1.3L29.7,1.3L29.7,1.3z M28.7,2.3L28.7,2.3L28.7,2.3L28.7,2.3z M29.2,2.7
	L29.2,2.7L29.2,2.7L29.2,2.7L29.2,2.7z M29.2,6.9L29.2,6.9L29.2,6.9L29.2,6.9z M28,9.9L28,9.9L28,9.9L28,9.9z M24.4,6L24.4,6L24.4,6
	L24.4,6z M21,2.2L21,2.2L21,2.2L21,2.2z M20.2,1.2L20.2,1.2L20.2,1.2L20.2,1.2L20.2,1.2z M18.4,1.2L18.4,1.2L18.4,1.2L18.4,1.2z
	 M36.1,2.2L36.1,2.2L36.1,2.2L36.1,2.2z M36.5,7.5L36.5,7.5L36.5,7.5L36.5,7.5z M35.5,13.9L35.5,13.9L35.5,13.9L35.5,13.9z
	 M38.9,13.7L38.9,13.7L38.9,13.7L38.9,13.7z M38.5,8.1L38.5,8.1L38.5,8.1L38.5,8.1z M38.8,2.3L38.8,2.3L38.8,2.3L38.8,2.3z
	 M52.9,1.6L52.9,1.6L52.9,1.6L52.9,1.6z M54.2,2.3L54.2,2.3L54.2,2.3L54.2,2.3z M56.9,8.7L56.9,8.7L56.9,8.7L56.9,8.7z M59.2,14.8
	L59.2,14.8L59.2,14.8L59.2,14.8L59.2,14.8z M59.8,14.8L59.8,14.8L59.8,14.8L59.8,14.8z M60.4,14.9L60.4,14.9L60.4,14.9L60.4,14.9
	L60.4,14.9z M62,10.6L62,10.6L62,10.6L62,10.6z M63.8,5.9L63.8,5.9L63.8,5.9L63.8,5.9z M64.6,6.9L64.6,6.9L64.6,6.9L64.6,6.9z
	 M66.4,11.6L66.4,11.6L66.4,11.6L66.4,11.6z M67.6,14.9L67.6,14.9L67.6,14.9L67.6,14.9L67.6,14.9z M68.8,14.6L68.8,14.6L68.8,14.6
	L68.8,14.6z M70.6,10.1L70.6,10.1L70.6,10.1L70.6,10.1z M72.8,4.3L72.8,4.3L72.8,4.3L72.8,4.3z M74.3,1.9L74.3,1.9L74.3,1.9
	L74.3,1.9z M68.5,12L68.5,12L68.5,12L68.5,12z M65.3,3.1L65.3,3.1L65.3,3.1L65.3,3.1z M63,3L63,3L63,3L63,3z M61.5,8.6L61.5,8.6
	L61.5,8.6L61.5,8.6z M60.2,12.1L60.2,12.1v0.1V12.1L60.2,12.1z M59.9,11.5L59.9,11.5L59.9,11.5L59.9,11.5z M58.1,6.6L58.1,6.6
	L58.1,6.6L58.1,6.6z M88,2L88,2L88,2L88,2z M88,1.7L88,1.7L88,1.7L88,1.7z M88.3,2.1L88.3,2.1L88.3,2.1L88.3,2.1z M88.6,2.2
	L88.6,2.2L88.6,2.2L88.6,2.2z M89.6,2.7L89.6,2.7L89.6,2.7L89.6,2.7z M89.7,8.1L89.7,8.1L89.7,8.1L89.7,8.1z M89.6,13.5L89.6,13.5
	L89.6,13.5L89.6,13.5z M88.5,14.3L88.5,14.3L88.5,14.3L88.5,14.3z M88.1,14.4L88.1,14.4L88.1,14.4L88.1,14.4z M88,14.7L88,14.7
	L88,14.7L88,14.7z M88.1,14.9L88.1,14.9L88.1,14.9L88.1,14.9z M88.3,14.9L88.3,14.9L88.3,14.9L88.3,14.9z M90.1,14.9L90.1,14.9
	L90.1,14.9L90.1,14.9z M92.9,15L92.9,15L92.9,15L92.9,15z M93.2,14.7L93.2,14.7L93.2,14.7L93.2,14.7z M93.1,14.4L93.1,14.4
	L93.1,14.4L93.1,14.4z M92.7,14.3L92.7,14.3L92.7,14.3L92.7,14.3z M91.6,13.6L91.6,13.6L91.6,13.6L91.6,13.6z M91.5,11.2L91.5,11.2
	L91.5,11.2L91.5,11.2z M91.5,9.2L91.5,9.2L91.5,9.2L91.5,9.2L91.5,9.2z M91.7,9.3L91.7,9.3L91.7,9.3L91.7,9.3z M94,9.9L94,9.9
	L94,9.9L94,9.9z M98.1,4L98.1,4L98.1,4L98.1,4z M94.1,1.3L94.1,1.3L94.1,1.3z M90.6,1.3L90.6,1.3L90.6,1.3L90.6,1.3z M90.4,1.3
	L90.4,1.3L90.4,1.3L90.4,1.3z M88.2,1.5L88.2,1.5L88.2,1.5L88.2,1.5z M88.2,1.5L88.2,1.5L88.2,1.5L88.2,1.5z M88,1.6L88,1.6L88,1.6
	L88,1.6z M96.4,5.5L96.4,5.5L96.4,5.5L96.4,5.5z M93.3,2.3L93.3,2.3L93.3,2.3L93.3,2.3z M91.5,3.2L91.5,3.2L91.5,3.2L91.5,3.2z
	 M91.5,5.9L91.5,5.9L91.5,5.9L91.5,5.9z M91.5,8.4L91.5,8.4L91.5,8.4L91.5,8.4L91.5,8.4z M91.7,8.5L91.7,8.5L91.7,8.5L91.7,8.5z
	 M91.7,8.5L91.7,8.5L91.7,8.5L91.7,8.5z M92.4,8.8L92.4,8.8L92.4,8.8L92.4,8.8z M80.1,1.3L80.1,1.3L80.1,1.3L80.1,1.3z M79.7,1.4
	L79.7,1.4L79.7,1.4L79.7,1.4z M80.4,1.3L80.4,1.3L80.4,1.3L80.4,1.3z M80.8,2.3L80.8,2.3L80.8,2.3L80.8,2.3z M81,2.7L81,2.7L81,2.7
	L81,2.7z M82.2,5.8L82.2,5.8L82.2,5.8L82.2,5.8z M83.4,9L83.4,9L83.4,9L83.4,9z M84.6,12L84.6,12L84.6,12L84.6,12z M85.2,13.3
	L85.2,13.3L85.2,13.3L85.2,13.3z M85.3,13.5L85.3,13.5L85.3,13.5L85.3,13.5z M86.2,14.2L86.2,14.2L86.2,14.2L86.2,14.2z M86.6,14.4
	L86.6,14.4L86.6,14.4L86.6,14.4z M86.7,14.5L86.7,14.5L86.7,14.5L86.7,14.5z M86.7,14.7L86.7,14.7L86.7,14.7L86.7,14.7z M86.7,14.8
	L86.7,14.8L86.7,14.8L86.7,14.8z M86.5,14.9L86.5,14.9L86.5,14.9L86.5,14.9z M83.6,14.9L83.6,14.9L83.6,14.9L83.6,14.9z M81.6,14.9
	L81.6,14.9L81.6,14.9L81.6,14.9z M81.5,14.8L81.5,14.8L81.5,14.8L81.5,14.8z M81.4,14.7L81.4,14.7L81.4,14.7L81.4,14.7z M81.4,14.6
	L81.4,14.6L81.4,14.6L81.4,14.6z M81.5,14.4L81.5,14.4L81.5,14.4L81.5,14.4z M81.9,14.3L81.9,14.3L81.9,14.3L81.9,14.3z M82.9,13.4
	L82.9,13.4L82.9,13.4L82.9,13.4z M82.9,13.3L82.9,13.3L82.9,13.3L82.9,13.3z M82.4,11.4L82.4,11.4L82.4,11.4L82.4,11.4z M81.7,10.1
	L81.7,10.1L81.7,10.1L81.7,10.1z M79.4,10.1L79.4,10.1L79.4,10.1L79.4,10.1z M77.1,10.1L77.1,10.1L77.1,10.1L77.1,10.1L77.1,10.1z
	 M77,10.5L77,10.5L77,10.5L77,10.5z M76.2,12.9L76.2,12.9L76.2,12.9L76.2,12.9z M77.1,14.2L77.1,14.2L77.1,14.2L77.1,14.2z
	 M77.5,14.3L77.5,14.3L77.5,14.3L77.5,14.3z M77.6,14.6L77.6,14.6L77.6,14.6L77.6,14.6z M77.6,14.7L77.6,14.7L77.6,14.7L77.6,14.7z
	 M77.5,14.8L77.5,14.8L77.5,14.8L77.5,14.8z M77.3,14.9L77.3,14.9L77.3,14.9L77.3,14.9z M75.2,14.9L75.2,14.9L75.2,14.9L75.2,14.9z
	 M73.1,14.9L73.1,14.9L73.1,14.9L73.1,14.9z M72.8,14.8L72.8,14.8L72.8,14.8L72.8,14.8z M72.8,14.6L72.8,14.6L72.8,14.6L72.8,14.6z
	 M73,14.4L73,14.4L73,14.4L73,14.4z M73.4,14.3L73.4,14.3L73.4,14.3L73.4,14.3z M74.5,13.2L74.5,13.2L74.5,13.2L74.5,13.2z
	 M74.5,13.1L74.5,13.1L74.5,13.1L74.5,13.1z M76.1,9.3L76.1,9.3L76.1,9.3L76.1,9.3z M77.5,5.7L77.5,5.7L77.5,5.7L77.5,5.7z M78.6,3
	L78.6,3L78.6,3L78.6,3z M79.1,1.8L79.1,1.8L79.1,1.8L79.1,1.8L79.1,1.8z M79.9,5.3L79.9,5.3L79.9,5.3L79.9,5.3z M79.6,4.4L79.6,4.4
	L79.6,4.4L79.6,4.4z M80.5,6.7L80.5,6.7L80.5,6.7L80.5,6.7z M81.1,8.1L81.1,8.1L81.1,8.1L81.1,8.1z M77.7,8.3L77.7,8.3L77.7,8.3
	L77.7,8.3z M79,4.6L79,4.6L79,4.6L79,4.6z M79.3,3.9L79.3,3.9L79.3,3.9L79.3,3.9z M43.5,5.5c-0.3-1.1-0.2-2,0.2-2.8
	c0.5-0.8,1.3-1.4,2.4-1.6V1c-1.1,0.3-2,0.9-2.5,1.7C43.2,3.5,43.1,4.5,43.5,5.5L43.5,5.5z M45.8,8.1c-1.2-0.7-2-1.6-2.3-2.5h-0.1
	C43.7,6.5,44.6,7.5,45.8,8.1L45.8,8.1z M49,10.6c-0.4-0.8-1-1.3-3.2-2.5v0.1C48,9.4,48.6,9.9,49,10.6L49,10.6z M49.2,12.1
	c0.1-0.3,0.1-0.5,0.1-0.7S49.2,11,49,10.6h-0.1c0.2,0.3,0.2,0.5,0.3,0.7C49.2,11.6,49.2,11.8,49.2,12.1L49.2,12.1z M46.5,14.2
	c0.7,0,1.3-0.2,1.8-0.6c0.5-0.4,0.8-0.9,1-1.6h-0.1c-0.2,0.7-0.5,1.2-1,1.5C47.7,13.9,47.2,14.1,46.5,14.2L46.5,14.2z M43.8,12.1
	c0.1,0.7,0.4,1.2,0.9,1.6c0.5,0.4,1.1,0.6,1.8,0.6v-0.1c-0.7,0-1.3-0.2-1.7-0.5C44.3,13.2,44,12.7,43.8,12.1L43.8,12.1z M43.4,11.5
	C43.5,11.5,43.5,11.5,43.4,11.5c0.1,0,0.2,0,0.2,0.1c0.1,0.1,0.1,0.3,0.2,0.5h0.1c0-0.3-0.1-0.4-0.2-0.6c0-0.1-0.1-0.1-0.1-0.1
	c-0.1,0-0.1,0-0.2,0C43.4,11.4,43.4,11.5,43.4,11.5z M43.2,12.9c0-0.7,0-1,0.1-1.2c0-0.1,0-0.1,0.1-0.2h0.1v-0.1
	c-0.1,0-0.1,0-0.2,0.1c-0.1,0-0.1,0.1-0.1,0.2c0,0.2-0.1,0.6-0.1,1.2H43.2z M43.2,14.3v-1.5h-0.1L43.2,14.3L43.2,14.3z M44,14.6
	l-0.9-0.3v0.1L44,14.6L44,14.6z M48.6,14.4c-0.6,0.3-1.4,0.4-2.2,0.5c-0.8,0-1.7-0.1-2.4-0.3v0.1c0.7,0.2,1.6,0.4,2.4,0.3
	C47.3,15,48.1,14.8,48.6,14.4L48.6,14.4z M50.8,9.3c0.5,1,0.6,2,0.2,2.9c-0.4,0.9-1.2,1.7-2.3,2.3v0.1c1.2-0.5,2-1.4,2.4-2.3
	C51.5,11.3,51.4,10.2,50.8,9.3L50.8,9.3z M47.8,6.7c1.7,1,2.7,1.9,3.1,2.6H51C50.5,8.4,49.5,7.6,47.8,6.7L47.8,6.7z M45,4
	c0.1,0.4,0.3,0.8,0.7,1.2c0.4,0.4,1.1,0.9,2,1.4l0.1-0.1c-0.9-0.5-1.5-1-2-1.4C45.4,4.7,45.2,4.3,45,4L45,4z M47.5,1.7
	c-1.5,0-2.7,1-2.5,2.3h0.1C45,2.8,46,1.8,47.5,1.7L47.5,1.7z M49.7,2.9c-0.2-0.4-0.4-0.7-0.8-0.9c-0.3-0.2-0.8-0.3-1.4-0.3v0.1
	c0.6,0,1,0.1,1.3,0.2C49.1,2.2,49.4,2.5,49.7,2.9L49.7,2.9z M50.4,3.6c-0.1,0-0.3,0-0.4-0.1c-0.1-0.1-0.2-0.3-0.3-0.6h-0.1
	c0.1,0.3,0.2,0.5,0.4,0.6C50.1,3.6,50.2,3.7,50.4,3.6L50.4,3.6z M50.6,3.3c0,0.1,0,0.1,0,0.2v0.1c0,0,0,0-0.1,0c0,0-0.1,0-0.2,0v0.1
	c0.1,0,0.2,0,0.2,0c0.1,0,0.1,0,0.1-0.1C50.6,3.6,50.6,3.5,50.6,3.3C50.8,3.4,50.7,3.3,50.6,3.3L50.6,3.3z M50.5,2.1
	c0,0.4,0,1,0.1,1.2h0.1C50.7,3,50.6,2.5,50.5,2.1L50.5,2.1z M50.3,1.2c0.1,0,0.1,0.1,0.2,0.2c0,0.1,0.1,0.3,0.1,0.6h0.1
	c0-0.3,0-0.5-0.1-0.6S50.4,1.2,50.3,1.2L50.3,1.2z M46.2,1.1C46.3,1.1,46.7,1,47,1c0.4,0,0.8,0,1.3,0c0.4,0,0.9,0,1.2,0.1
	c0.2,0,0.3,0,0.5,0.1c0.1,0,0.2,0,0.3,0.1V1.2c-0.1,0-0.2,0-0.3-0.1c-0.1,0-0.3,0-0.5-0.1c-0.4,0-0.8-0.1-1.2-0.1s-0.9,0-1.3,0
	C46.6,0.9,46.3,1,46.2,1.1L46.2,1.1z M0.9,1.9c-0.1,0-0.2,0-0.3-0.1c0,0-0.1-0.1-0.1-0.2h0c0,0.1,0,0.2,0.1,0.3
	C0.6,1.9,0.8,2,0.9,1.9L0.9,1.9z M1.9,7.2c0-2.5-0.1-3.8-0.2-4.5c0-0.4-0.1-0.6-0.3-0.7C1.3,1.9,1.1,1.9,0.9,1.9V2
	c0.2,0,0.4,0,0.5,0.1s0.2,0.3,0.3,0.6C1.8,3.3,1.8,4.7,1.9,7.2L1.9,7.2z M2.4,12.5c-0.1-0.2-0.2-0.3-0.2-0.5
	c-0.1-0.2-0.1-0.4-0.1-0.8C2,10.5,2,9.3,1.9,7.2H1.8c0,2.2,0.1,3.4,0.1,4.1C2,11.6,2,11.8,2.1,12C2.2,12.2,2.2,12.4,2.4,12.5
	L2.4,12.5z M4.6,14.5c-1-0.5-1.7-1.1-2.2-2H2.3C2.8,13.5,3.5,14.1,4.6,14.5L4.6,14.5z M7.2,14.9c-0.7,0-1.2,0-1.6-0.1
	s-0.7-0.2-1-0.3v0.1c0.4,0.2,0.7,0.3,1,0.3C6,15,6.5,15,7.2,15V14.9z M9.9,14.4c-0.4,0.2-0.7,0.3-1.1,0.4c-0.4,0.1-0.8,0.1-1.6,0.1
	V15c0.8,0,1.2,0,1.6-0.1C9.2,14.8,9.5,14.7,9.9,14.4L9.9,14.4z M11.4,13.3c-0.3,0.3-1,0.8-1.5,1.1v0.1
	C10.5,14.2,11.2,13.7,11.4,13.3L11.4,13.3z M12.6,6.7c-0.1,2.4-0.1,3.8-0.3,4.7c-0.1,0.4-0.2,0.8-0.3,1.1s-0.3,0.6-0.6,0.8l0.1,0.1
	c0.2-0.3,0.4-0.6,0.6-0.9c0.2-0.3,0.3-0.6,0.3-1.1c0.2-0.9,0.2-2.3,0.3-4.7L12.6,6.7z M13.5,1.9c-0.2,0-0.4,0-0.5,0.1
	c-0.1,0.1-0.2,0.3-0.3,0.6c-0.1,0.6-0.1,1.8-0.2,4.2h0.1c0.1-2.4,0.1-3.5,0.2-4.1C12.9,2.3,13,2.1,13.1,2C13.2,2,13.3,2,13.5,1.9
	L13.5,1.9z M13.8,1.6c0,0.1,0,0.2-0.1,0.2c0,0-0.1,0.1-0.2,0.1V2c0.1,0,0.2,0,0.3-0.1s0.1-0.2,0.1-0.3C13.9,1.6,13.8,1.6,13.8,1.6z
	 M11.8,1.3c1,0,1.5,0,1.8,0c0.1,0,0.2,0.1,0.2,0.1s0,0.1,0,0.2h0.1c0-0.1,0-0.2-0.1-0.2c-0.1-0.1-0.1-0.1-0.3-0.1
	C13.3,1.2,12.7,1.2,11.8,1.3L11.8,1.3z M9.7,1.6c0-0.1,0-0.1,0-0.1s0.1-0.1,0.2-0.1c0.3,0,0.8,0,1.8,0V1.2c-1,0-1.5,0-1.8,0.1
	c-0.1,0-0.2,0.1-0.3,0.1C9.6,1.4,9.6,1.5,9.7,1.6L9.7,1.6z M10.2,1.9c-0.2,0-0.3-0.1-0.4-0.1c-0.1,0-0.1-0.1-0.1-0.2H9.6
	c0,0.1,0,0.2,0.1,0.3C9.9,1.9,10,2,10.2,1.9L10.2,1.9z M11.3,6.7c0-2.1,0-3.3-0.2-3.9c-0.1-0.3-0.2-0.5-0.3-0.6S10.5,2,10.2,2v0.1
	c0.2,0,0.4,0.1,0.5,0.2c0.2,0,0.3,0.1,0.3,0.4c0.1,0.6,0.2,1.8,0.2,3.9L11.3,6.7z M10.2,12.8c0.2-0.2,0.4-0.4,0.6-0.7
	c0.1-0.3,0.3-0.6,0.3-1c0.2-0.9,0.2-2.2,0.2-4.3h-0.1c0,2.2,0,3.5-0.2,4.3c-0.1,0.4-0.2,0.7-0.3,1C10.5,12.3,10.4,12.5,10.2,12.8
	L10.2,12.8z M7.4,13.9c0.6,0,1.1-0.1,1.5-0.2c0.4-0.2,0.8-0.5,1.3-0.9l-0.1-0.1c-0.4,0.4-0.8,0.7-1.2,0.8c-0.4,0.2-0.9,0.2-1.5,0.2
	C7.4,13.7,7.4,13.9,7.4,13.9z M4.1,11.7c0.4,1.4,1.6,2.2,3.3,2.2v-0.1C5.8,13.8,4.6,13,4.1,11.7L4.1,11.7z M4,6.6c0,1.5,0,2.6,0,3.5
	c0,0.4,0,0.8,0.1,1c0,0.3,0.1,0.5,0.1,0.6h0.1c0-0.1-0.1-0.3-0.1-0.6s0-0.6-0.1-1C4,9.2,4,8,4,6.6L4,6.6z M4,2.2v4.4h0.1L4,2.2
	L4,2.2z M4.6,1.9L4,2.1v0.1L4.6,1.9L4.6,1.9z M5.3,1.5c0,0,0,0.1-0.1,0.1L5.1,1.7C5,1.8,4.8,1.9,4.6,1.9V2C4.8,2,5,1.9,5.1,1.8
	c0.1,0,0.1-0.1,0.2-0.1C5.3,1.6,5.4,1.6,5.3,1.5L5.3,1.5z M2.9,1.3c1.1,0,1.7,0,2,0c0.2,0,0.3,0,0.3,0.1l0,0c0,0,0,0,0,0.1h0.1V1.4
	c0,0,0-0.1-0.1-0.1c0,0-0.1-0.1-0.2-0.1C4.6,1.2,4,1.2,2.9,1.3L2.9,1.3z M0.6,1.6c0-0.1,0-0.1,0-0.2c0,0,0.1-0.1,0.3-0.1
	c0.3,0,0.9,0,2.1,0V1.2c-1.2,0-1.8,0-2.1,0c-0.2,0-0.3,0.1-0.3,0.1C0.5,1.4,0.5,1.5,0.5,1.6H0.6z M17.1,1.9c-0.2,0-0.3,0-0.4-0.1
	c-0.1,0-0.1-0.1-0.1-0.2h-0.1c0,0.1,0,0.2,0.1,0.3C16.8,1.9,16.9,2,17.1,1.9L17.1,1.9z M18.8,3c-0.1-0.4-0.3-0.7-0.6-0.8
	c-0.3-0.2-0.6-0.3-1.1-0.3V2c0.4,0,0.8,0.1,1,0.3C18.4,2.4,18.6,2.6,18.8,3L18.8,3z M18.9,8.3c0-1.4,0-2.6,0-3.6c0-0.5,0-0.8,0-1.1
	s0-0.5-0.1-0.6h-0.1c0,0.1,0.1,0.3,0.1,0.6s0,0.7,0,1.1C18.8,5.6,18.8,6.8,18.9,8.3L18.9,8.3z M17.7,14c0.3-0.1,0.5-0.1,0.6-0.3
	c0.2-0.2,0.3-0.4,0.4-0.8c0.2-0.8,0.2-2.1,0.2-4.7h-0.1c0,2.6-0.1,3.9-0.2,4.7c-0.1,0.4-0.2,0.6-0.3,0.7
	C18.1,13.8,17.9,13.8,17.7,14L17.7,14z M17.2,14.4c0-0.1,0-0.2,0.1-0.2c0.1-0.1,0.2-0.1,0.4-0.1V14c-0.2,0-0.3,0.1-0.4,0.2
	C17.2,14.3,17.2,14.4,17.2,14.4L17.2,14.4L17.2,14.4z M19.6,14.6c-1.1,0-1.7,0-2.1,0c-0.2,0-0.2-0.1-0.3-0.1v-0.1h-0.1
	c0,0.1,0,0.2,0.1,0.2c0.1,0.1,0.2,0.1,0.3,0.1C17.8,14.7,18.4,14.7,19.6,14.6L19.6,14.6z M21.9,14.4c0,0.1,0,0.1,0,0.1
	s-0.1,0.1-0.3,0.1c-0.3,0-0.9,0-2,0v0.1c1.1,0,1.7,0,2,0c0.2,0,0.3-0.1,0.3-0.1c0.1-0.1,0.1-0.1,0.1-0.2
	C22,14.4,21.9,14.4,21.9,14.4z M21.2,13.9c0.3,0.1,0.5,0.1,0.6,0.2c0.1,0.1,0.2,0.2,0.2,0.2h0c0-0.1-0.1-0.2-0.2-0.3
	C21.7,14,21.5,13.9,21.2,13.9L21.2,13.9z M20.2,13c0.1,0.3,0.2,0.5,0.3,0.6c0.1,0.1,0.4,0.2,0.7,0.3v-0.1c-0.3-0.1-0.5-0.2-0.7-0.3
	C20.5,13.4,20.4,13.3,20.2,13L20.2,13z M20.2,4.5L20.2,4.5C20.2,4.5,20.1,4.5,20.2,4.5c-0.1,0.1-0.1,0.1-0.1,0.1c0,0.1,0,0.1,0,0.2
	c0,0.2,0,0.5,0,0.9c0,0.7,0,1.7,0,2.7s0,2.1,0.1,2.9c0,0.4,0,0.8,0.1,1.1c0,0.3,0,0.5,0.1,0.6h0.1c0-0.1,0-0.3-0.1-0.6
	c0-0.3,0-0.6-0.1-1.1c0-0.8,0-1.9-0.1-2.9c0-1,0-2,0-2.7c0-0.4,0-0.7,0-0.9C20.2,4.7,20.2,4.6,20.2,4.5C20.2,4.6,20.2,4.6,20.2,4.5
	C20.2,4.5,20.2,4.6,20.2,4.5C20.2,4.6,20.2,4.6,20.2,4.5L20.2,4.5z M21.7,6.1c-0.4-0.4-0.7-0.8-1-1.1c-0.1-0.1-0.3-0.3-0.3-0.3
	l-0.1-0.1l0,0l0,0l0,0v0.1l0,0l0,0l0,0l0.1,0.1c0.1,0.1,0.2,0.2,0.3,0.3C20.9,5.3,21.3,5.7,21.7,6.1L21.7,6.1z M26.3,11.2
	c-1.8-1.9-3.8-4.2-4.6-5.1l-0.1,0.1C22.4,7,24.5,9.3,26.3,11.2L26.3,11.2z M30,14.6c-0.2,0-0.4-0.1-0.9-0.6s-1.3-1.4-2.7-2.9
	l-0.1,0.1c1.4,1.5,2.2,2.4,2.7,2.9S29.7,14.7,30,14.6L30,14.6z M30.5,14.6H30v0.1L30.5,14.6L30.5,14.6z M30.5,8.6v6.1h0.1V8.6H30.5z
	 M30.7,2.2C30.7,2.2,30.7,2.3,30.7,2.2c0,0.1-0.1,0.1-0.1,0.2c0,0.1,0,0.2,0,0.3c0,0.3-0.1,0.6-0.1,1.2c0,1-0.1,2.6-0.1,4.7h0.1
	c0-2.2,0-3.7,0.1-4.7c0-0.5,0-0.9,0.1-1.1c0-0.1,0-0.2,0-0.3C30.8,2.4,30.8,2.3,30.7,2.2C30.8,2.3,30.8,2.3,30.7,2.2
	C30.8,2.3,30.8,2.3,30.7,2.2C30.8,2.3,30.8,2.3,30.7,2.2L30.7,2.2z M31.5,1.9C31.4,1.9,31.2,2,31,2c-0.1,0.1-0.3,0.1-0.3,0.2
	l0.1,0.1c0,0,0.2-0.1,0.3-0.2C31.2,2.1,31.4,2,31.5,1.9L31.5,1.9z M32.1,1.6c0,0,0,0.1-0.1,0.2s-0.2,0.1-0.4,0.1V2
	c0.2,0,0.3-0.1,0.4-0.2s0.2-0.2,0.2-0.3h-0.1V1.6z M29.7,1.3c1,0,1.6,0,1.9,0.1c0.2,0,0.3,0,0.3,0.1c0,0,0,0,0.1,0l0,0h0.1V1.4
	L32,1.3c-0.1,0-0.2-0.1-0.4-0.1C31.3,1.3,30.7,1.2,29.7,1.3L29.7,1.3z M27.4,1.6c0-0.1,0-0.1,0-0.2c0,0,0.1-0.1,0.3-0.1
	c0.3,0,0.9,0,2,0V1.2c-1.1,0-1.7,0-2.1,0c-0.2,0-0.3,0.1-0.3,0.1c-0.1,0.1-0.1,0.1-0.1,0.2h0.2V1.6z M27.8,1.9c-0.2,0-0.2,0-0.3-0.1
	c-0.1,0-0.1-0.1-0.1-0.2h-0.1c0,0.1,0,0.2,0.1,0.3C27.5,1.9,27.6,2,27.8,1.9L27.8,1.9z M28.7,2.3c-0.1-0.1-0.3-0.2-0.5-0.3
	c-0.2-0.1-0.3-0.1-0.5-0.1V2c0.1,0,0.3,0,0.4,0.1C28.4,2.2,28.5,2.3,28.7,2.3L28.7,2.3z M29.2,2.7l-0.5-0.4l-0.1,0.1L29.2,2.7
	L29.2,2.7z M29.3,6.9l-0.1-4.2h-0.1l0.1,4.2H29.3z M29.1,11.1C29.2,11.1,29.2,11.1,29.1,11.1C29.2,11.1,29.2,11.1,29.1,11.1
	c0.1-0.1,0.1-0.1,0.1-0.1c0-0.1,0-0.1,0-0.2c0-0.2,0-0.5,0-0.9c0-0.7,0-1.8,0-3h-0.1c0,1.2,0,2.2,0,3c0,0.4,0,0.7,0,0.9
	c0,0.1,0,0.2,0,0.2S29.1,11,29.1,11.1C29.1,11,29.1,11,29.1,11.1c0-0.1,0-0.1,0-0.1V11.1z M27.9,9.9c0.3,0.3,0.6,0.6,0.8,0.8
	c0.1,0.1,0.2,0.2,0.3,0.3l0.1,0.1l0,0l0,0V11l0,0l0,0c0,0,0,0-0.1-0.1s-0.2-0.1-0.3-0.2C28.5,10.5,28.3,10.2,27.9,9.9L27.9,9.9z
	 M24.4,6c1.4,1.5,3,3.3,3.6,3.9l0,0C27.4,9.2,25.8,7.5,24.4,6L24.4,6z M21,2.3c0.5,0.5,2,2.2,3.4,3.7l0.1-0.1
	C23,4.4,21.5,2.7,21,2.3L21,2.3z M20.1,1.3l0.8,1L21,2.2L20.1,1.3L20.1,1.3z M18.4,1.3h1.8V1.2h-1.8V1.3z M16.7,1.6
	c0-0.1,0-0.1,0-0.2c0,0,0.1-0.1,0.2-0.1c0.2,0,0.7,0,1.5,0V1.2c-0.8,0-1.3,0-1.5,0c-0.1,0-0.2,0.1-0.3,0.1c0,0.1-0.1,0.1-0.1,0.2
	h0.2V1.6z M35.3,1.9c-0.2,0-0.3,0-0.4-0.1c-0.1,0-0.1-0.1-0.1-0.2h-0.1c0,0.1,0,0.2,0.1,0.3C35,1.9,35.1,2,35.3,1.9L35.3,1.9z
	 M36.1,2.1C36,2,35.9,2,35.7,1.9c-0.2,0-0.3-0.1-0.5-0.1V2c0.1,0,0.3,0,0.4,0.1C35.9,2.1,36,2.1,36.1,2.1L36.1,2.1z M36.5,7.5
	c0-2.4,0-3.7-0.1-4.4c0-0.4-0.1-0.6-0.1-0.7c-0.1-0.1-0.1-0.2-0.2-0.3L36,2.2c0.1,0.1,0.1,0.1,0.2,0.2c0,0.1,0.1,0.3,0.1,0.7
	C36.4,3.8,36.4,5.1,36.5,7.5L36.5,7.5z M35.5,14c0.3,0,0.5-0.1,0.6-0.3c0.2-0.2,0.3-0.4,0.3-0.8c0.1-0.9,0.1-2.4,0.1-5.4h-0.1
	c0,3,0,4.6-0.1,5.4c-0.1,0.4-0.2,0.7-0.3,0.8S35.7,13.8,35.5,14L35.5,14z M34.8,14.4c0-0.1,0-0.1,0-0.1s0-0.1,0.1-0.1
	c0.1-0.1,0.3-0.1,0.5-0.1V14c-0.3,0-0.4,0.1-0.6,0.2c-0.1,0-0.1,0.1-0.1,0.1C34.8,14.2,34.7,14.3,34.8,14.4L34.8,14.4z M37.4,14.6
	c-1.2,0-1.9,0-2.2,0c-0.2,0-0.3-0.1-0.3-0.1v-0.1h-0.1c0,0.1,0,0.2,0.1,0.2c0.1,0.1,0.2,0.1,0.4,0.1C35.5,14.7,36.2,14.7,37.4,14.6
	L37.4,14.6z M39.9,14.3c0,0.1,0,0.1,0,0.2c0,0-0.1,0.1-0.3,0.1c-0.3,0-1,0-2.2,0v0.1c1.2,0,1.9,0,2.2,0c0.2,0,0.3-0.1,0.3-0.1
	C40,14.5,40,14.4,39.9,14.3L39.9,14.3z M39.6,14c0.1,0,0.2,0,0.3,0.1c0,0,0.1,0.1,0.1,0.2h0c0-0.1,0-0.2-0.1-0.3
	C39.9,14,39.7,13.9,39.6,14L39.6,14z M38.8,13.8c0.1,0.1,0.2,0.1,0.4,0.2c0.1,0,0.3,0.1,0.4,0.1V14c-0.1,0-0.2,0-0.4-0.1
	C39.1,13.8,39,13.8,38.8,13.8L38.8,13.8z M38.4,8.1c0,2.6,0,3.9,0.1,4.7c0,0.4,0.1,0.6,0.1,0.7c0,0.1,0.1,0.1,0.1,0.2l0.1,0.1
	l0.1-0.1l-0.1-0.1l-0.1-0.1c0-0.1-0.1-0.3-0.1-0.7C38.6,12,38.5,10.6,38.4,8.1L38.4,8.1z M38.7,2.2c-0.1,0.1-0.2,0.2-0.2,0.3
	c-0.1,0.2-0.1,0.4-0.1,0.8c0,0.7,0,2.1,0,4.8h0.1c0-2.6,0-4,0-4.7c0-0.4,0.1-0.6,0.1-0.7C38.7,2.5,38.7,2.4,38.7,2.2L38.7,2.2z
	 M39.6,1.9c-0.1,0-0.3,0-0.4,0.1c-0.2,0-0.4,0.1-0.5,0.2l0.1,0.1c0.1-0.1,0.2-0.2,0.4-0.2C39.3,2,39.5,2,39.6,1.9L39.6,1.9z
	 M39.9,1.6c0,0.1,0,0.2-0.1,0.2s-0.1,0.1-0.3,0.1V2c0.2,0,0.3,0,0.4-0.1C40,1.8,40,1.7,39.9,1.6L39.9,1.6z M37.4,1.3
	c1.2,0,1.9,0,2.2,0c0.2,0,0.2,0.1,0.3,0.1c0,0,0,0.1,0,0.2H40c0-0.1,0-0.2-0.1-0.2c-0.1-0.1-0.2-0.1-0.3-0.1
	C39.3,1.2,38.6,1.2,37.4,1.3L37.4,1.3z M34.8,1.6c0-0.1,0-0.1,0-0.2c0,0,0.1-0.1,0.3-0.1c0.3,0,1,0,2.2,0V1.2c-1.2,0-1.9,0-2.2,0
	c-0.2,0-0.3,0.1-0.3,0.1C34.8,1.4,34.7,1.5,34.8,1.6L34.8,1.6z M53.4,1.9c-0.2,0-0.4-0.1-0.4-0.3h-0.1C52.9,1.8,53.1,2,53.4,1.9
	L53.4,1.9z M54.2,2.3C54.1,2.2,54,2.1,53.8,2c-0.1-0.1-0.3-0.1-0.4-0.1V2c0.1,0,0.2,0,0.4,0.1C53.9,2.1,54,2.2,54.2,2.3L54.2,2.3z
	 M56.9,8.7c-0.6-1.7-1.3-3.2-1.7-4.4c-0.2-0.6-0.5-1.1-0.6-1.4c-0.1-0.2-0.1-0.3-0.2-0.4c0-0.1-0.1-0.1-0.1-0.1s0-0.1-0.1-0.1
	l-0.1,0.1c0,0,0,0,0,0.1c0,0,0,0.1,0.1,0.1c0.1,0.1,0.1,0.2,0.2,0.4c0.2,0.3,0.4,0.8,0.6,1.4C55.5,5.5,56.2,7.1,56.9,8.7L56.9,8.7z
	 M59.2,14.8l-2.3-6h-0.1L59.2,14.8L59.2,14.8z M59.8,14.8l-0.6-0.1v0.1H59.8L59.8,14.8z M60.4,14.8l-0.6-0.1v0.1H60.4L60.4,14.8z
	 M61.9,10.6l-1.6,4.3h0.1L61.9,10.6L61.9,10.6z M63.8,5.9c-0.1,0.1-0.3,0.7-0.6,1.6s-0.8,2-1.2,3.1h0.1c0.4-1.2,0.9-2.3,1.2-3.1
	C63.6,6.6,63.8,6,63.8,5.9L63.8,5.9z M64.6,6.9c-0.1-0.3-0.2-0.6-0.3-0.8c-0.1-0.2-0.1-0.3-0.2-0.4L64,5.6h-0.1l-0.1,0.1
	c0,0,0,0.1-0.1,0.1h0.1c0,0,0-0.1,0.1-0.1c0,0,0,0,0-0.1l0,0l0,0c0,0.1,0.1,0.2,0.2,0.4C64.3,6.4,64.4,6.6,64.6,6.9L64.6,6.9z
	 M66.4,11.6c-0.7-1.8-1.5-3.9-1.8-4.7h-0.1C64.8,7.7,65.6,9.9,66.4,11.6L66.4,11.6z M67.7,14.8l-1.2-3.2h-0.1L67.7,14.8L67.7,14.8z
	 M68.2,14.8h-0.5v0.1L68.2,14.8L68.2,14.8z M68.7,14.6C68.7,14.6,68.7,14.7,68.7,14.6c-0.1,0.1-0.1,0.1-0.2,0.1s-0.3,0.1-0.4,0.1
	v0.1c0.2,0,0.3,0,0.4-0.1c0.1,0,0.1,0,0.2-0.1C68.8,14.7,68.8,14.7,68.7,14.6L68.7,14.6z M70.5,10.1c-0.9,2.4-1.7,4.4-1.8,4.5h0.1
	C68.9,14.5,69.7,12.5,70.5,10.1L70.5,10.1z M72.8,4.3c-0.3,0.8-1.4,3.5-2.3,5.8h0.1C71.5,7.7,72.6,5.1,72.8,4.3L72.8,4.3z M74.3,1.9
	c-0.1,0-0.3,0.1-0.4,0.2s-0.2,0.2-0.3,0.4c-0.2,0.3-0.4,0.9-0.8,1.8h0.1c0.4-1,0.6-1.5,0.8-1.8c0.1-0.2,0.2-0.3,0.3-0.3
	C74.1,2.1,74.2,2,74.3,1.9L74.3,1.9z M74.8,1.5c0,0.1,0,0.1-0.1,0.2s-0.2,0.1-0.3,0.2V2c0.1,0,0.3-0.1,0.4-0.2
	C74.8,1.7,74.9,1.6,74.8,1.5L74.8,1.5z M72.7,1.3c0.9,0,1.4,0,1.7,0c0.1,0,0.2,0,0.3,0.1l0,0c0,0,0,0,0,0.1h0.1V1.4
	c0,0,0-0.1-0.1-0.1s-0.2-0.1-0.3-0.1C74.1,1.2,73.6,1.2,72.7,1.3L72.7,1.3z M70.7,1.6c0-0.1,0-0.1,0-0.2c0,0,0.1-0.1,0.2-0.1
	c0.3,0,0.8,0,1.8,0V1.2c-1,0-1.5,0-1.8,0.1c-0.1,0-0.2,0.1-0.3,0.1C70.6,1.4,70.6,1.5,70.7,1.6L70.7,1.6z M71.1,1.9
	c-0.1,0-0.2,0-0.3-0.1c-0.1,0-0.1-0.1-0.1-0.2h-0.1c0,0.1,0,0.2,0.1,0.3C70.8,1.9,70.9,2,71.1,1.9L71.1,1.9z M72.1,2.5
	c0-0.2-0.1-0.4-0.3-0.5c-0.2-0.1-0.4-0.2-0.8-0.2V2c0.3,0,0.6,0,0.7,0.1C71.9,2.2,72,2.3,72.1,2.5L72.1,2.5z M68.6,12.1
	C68.6,12,68.6,12,68.6,12.1c0-0.1,0.1-0.1,0.1-0.2c0-0.1,0.1-0.2,0.1-0.3c0.1-0.3,0.3-0.6,0.4-1.1c0.3-0.9,0.8-2,1.2-3.2
	c0.4-1.2,0.8-2.3,1.2-3.2C71.8,3.7,71.9,3.3,72,3c0-0.1,0-0.2,0-0.3V2.6V2.5l0,0l0,0v0.1c0,0.1-0.1,0.2-0.1,0.3
	c-0.1,0.3-0.2,0.7-0.4,1.1c-0.3,0.9-0.7,2-1.2,3.2c-0.4,1.2-0.9,2.3-1.2,3.2c-0.2,0.4-0.3,0.8-0.4,1.1c-0.1,0.1-0.1,0.2-0.1,0.3v0.1
	C68.5,12,68.5,12,68.6,12.1C68.5,12,68.5,12,68.6,12.1L68.6,12.1z M65.3,3.1c0,0.1,0.1,0.3,0.2,0.6s0.2,0.7,0.4,1.1
	c0.3,0.9,0.7,2,1.1,3.1s0.8,2.1,1.1,2.9c0.1,0.4,0.3,0.7,0.4,0.9c0,0.1,0.1,0.2,0.1,0.2V12l0,0l0,0l0,0l-0.1,0l0,0l0,0l0,0
	c0,0,0,0,0-0.1s-0.1-0.1-0.1-0.2c-0.1-0.2-0.2-0.5-0.4-0.9c-0.3-0.8-0.6-1.9-1-2.9c-0.4-1.1-0.8-2.2-1.1-3.1
	c-0.1-0.4-0.3-0.8-0.4-1.1C65.4,3.3,65.4,3.1,65.3,3.1L65.3,3.1z M66.3,1.9c-0.4,0-0.7,0.1-0.8,0.3c-0.2,0.2-0.2,0.5-0.2,0.9h0.1
	c-0.1-0.4,0-0.6,0.1-0.8C65.7,2.1,65.9,2,66.3,1.9L66.3,1.9z M66.6,1.6c0,0.1,0,0.2-0.1,0.2s-0.1,0.1-0.3,0.1V2c0.1,0,0.3,0,0.3-0.1
	C66.7,1.8,66.7,1.7,66.6,1.6L66.6,1.6z M64,1.3c1.3,0,2,0,2.3,0c0.2,0,0.3,0.1,0.3,0.1s0,0.1,0,0.2h0.1c0-0.1,0-0.2-0.1-0.2
	c-0.1-0.1-0.2-0.1-0.3-0.1C65.9,1.2,65.3,1.2,64,1.3L64,1.3z M61.3,1.6c0-0.1,0-0.1,0-0.2c0,0,0.1-0.1,0.3-0.1c0.3,0,1,0,2.3,0V1.2
	c-1.3,0-2,0-2.3,0c-0.2,0-0.3,0.1-0.3,0.1C61.2,1.4,61.2,1.4,61.3,1.6L61.3,1.6L61.3,1.6z M61.6,1.9c-0.1,0-0.2-0.1-0.2-0.3h-0.1
	C61.2,1.8,61.4,2,61.6,1.9L61.6,1.9z M63.1,2.9c-0.1-0.3-0.3-0.5-0.6-0.7s-0.6-0.3-0.9-0.3V2c0.3,0,0.6,0.1,0.8,0.3
	C62.7,2.5,62.9,2.7,63.1,2.9L63.1,2.9z M61.6,8.6c0.8-2.1,1.2-3.3,1.4-4.1s0.2-1.2,0.1-1.6L63,3c0.1,0.4,0.1,0.7-0.1,1.5
	C62.7,5.3,62.2,6.5,61.6,8.6L61.6,8.6z M60.2,12.2l1.3-3.5h-0.1L60.2,12.2L60.2,12.2z M59.9,11.5l0.3,0.7h0.1L59.9,11.5L59.9,11.5z
	 M58,6.6c0.8,2.3,1.7,4.5,1.8,4.9h0.1C59.8,11.1,59,8.9,58,6.6L58,6.6z M57.5,1.9c-0.1,0-0.3,0-0.4,0c-0.1,0-0.2,0-0.3,0.1
	c-0.1,0.1-0.2,0.3-0.2,0.6S56.8,3.4,57,4c0.2,0.7,0.5,1.5,0.9,2.6H58c-0.4-1.1-0.7-2-0.9-2.6c-0.2-0.7-0.3-1.1-0.4-1.4
	c0-0.3,0-0.4,0.1-0.5C57,2,57.1,2,57.2,2C57.3,2,57.4,2,57.5,1.9L57.5,1.9z M58,1.6c0,0.1,0,0.2-0.1,0.2s-0.2,0.1-0.4,0.1V2
	c0.2,0,0.3,0,0.4-0.1C58,1.8,58.1,1.7,58,1.6L58,1.6z M55.4,1.3c1.2,0,1.9,0,2.2,0c0.2,0,0.2,0.1,0.3,0.1c0,0,0,0.1,0,0.2H58
	c0-0.1,0-0.2-0.1-0.2c-0.1-0.1-0.2-0.1-0.3-0.1C57.3,1.2,56.7,1.2,55.4,1.3L55.4,1.3z M53,1.6C53,1.5,53,1.5,53,1.6
	c0-0.1,0-0.1,0-0.2c0,0,0,0,0.1,0c0,0,0.1,0,0.2,0c0.3,0,1,0,2.2,0V1.2c-1.2,0-1.9,0-2.2,0c-0.1,0-0.1,0-0.2,0c0,0-0.1,0-0.1,0.1
	v0.1C52.9,1.5,52.9,1.5,53,1.6L53,1.6z M88.1,2C88.1,2,88.1,1.9,88.1,2c0-0.1,0-0.1,0-0.2V1.7l0,0l0,0l0,0l0,0l0,0l0,0l0,0
	c0,0,0,0-0.1,0l0,0l0,0l0,0l0,0l0,0l0,0l0,0l0,0v0.1v0.1C88,2,88,2,88.1,2L88.1,2z M88.3,2.1C88.3,2,88.3,2,88.3,2.1L88.3,2.1
	L88.3,2.1L88.3,2.1C88.3,2,88.3,2,88.3,2.1C88.3,2,88.3,2,88.3,2.1C88.3,2,88.3,2,88.3,2.1C88.2,2,88.2,2,88.3,2.1
	C88.2,2,88.2,2,88.3,2.1C88.1,2,88.1,2,88.1,2l0,0l0,0H88c0,0,0,0.1,0.1,0.1h0.1C88.2,2.1,88.2,2.1,88.3,2.1
	C88.2,2.1,88.2,2.1,88.3,2.1C88.2,2.1,88.2,2.1,88.3,2.1C88.2,2.1,88.2,2.1,88.3,2.1C88.2,2.1,88.2,2.1,88.3,2.1
	C88.2,2.1,88.2,2.1,88.3,2.1C88.2,2.1,88.2,2.1,88.3,2.1L88.3,2.1C88.2,2.1,88.2,2.1,88.3,2.1z M88.6,2.1c-0.1,0-0.2-0.1-0.3-0.1
	v0.1C88.4,2.2,88.5,2.2,88.6,2.1L88.6,2.1z M89.7,2.7c-0.1-0.2-0.2-0.3-0.4-0.4c-0.2-0.1-0.4-0.1-0.7-0.2v0.1
	c0.3,0.1,0.5,0.1,0.7,0.2C89.4,2.5,89.5,2.6,89.7,2.7L89.7,2.7z M89.8,8.1c0-2.2,0-3.4,0-4.2c0-0.4,0-0.6,0-0.8s0-0.3-0.1-0.3h-0.1
	c0,0,0,0.1,0.1,0.3c0,0.2,0,0.4,0,0.8C89.7,4.6,89.7,5.9,89.8,8.1L89.8,8.1z M89.7,13.5c0.1-0.2,0.1-0.4,0.1-1.1c0-0.7,0-2,0-4.3
	h-0.1c0,2.3,0,3.6,0,4.3C89.6,13.2,89.6,13.4,89.7,13.5L89.7,13.5z M88.5,14.3c0.3-0.1,0.6-0.2,0.8-0.3c0.2-0.1,0.3-0.3,0.4-0.5
	h-0.1c-0.1,0.2-0.2,0.3-0.3,0.4C89,14,88.8,14.1,88.5,14.3L88.5,14.3z M88.2,14.5C88.2,14.5,88.2,14.4,88.2,14.5
	c0.1-0.1,0.2-0.1,0.2-0.1h0.1l0,0l0,0l0,0l0,0l0,0l0,0l0,0l0,0l0,0l0,0l0,0l0,0l0,0l0,0l0,0l0,0h-0.1C88.4,14.4,88.3,14.4,88.2,14.5
	C88.2,14.3,88.1,14.4,88.2,14.5L88.2,14.5z M88,14.7C88.1,14.7,88.1,14.7,88,14.7L88,14.7L88,14.7L88,14.7
	C88.1,14.7,88.1,14.7,88,14.7C88.1,14.7,88.1,14.7,88,14.7C88.1,14.7,88.1,14.7,88,14.7C88.1,14.7,88.1,14.7,88,14.7
	C88.1,14.6,88.1,14.6,88,14.7c0.1-0.1,0.1-0.2,0.1-0.2L88,14.4c-0.1,0-0.1,0.1-0.1,0.2C88,14.6,88,14.6,88,14.7
	C88,14.6,88,14.7,88,14.7L88,14.7L88,14.7L88,14.7L88,14.7L88,14.7L88,14.7L88,14.7z M88.1,14.9v-0.1c0,0,0,0,0-0.1l0,0l0,0l0,0l0,0
	l0,0l0,0l0,0l0,0l0,0l0,0l0,0l0,0l0,0l0,0l0,0l0,0c0,0,0,0,0,0.1C88,14.8,88,14.9,88.1,14.9L88.1,14.9z M88.3,14.9L88.3,14.9
	L88.3,14.9L88.3,14.9L88.3,14.9L88.3,14.9L88.3,14.9L88.3,14.9L88.3,14.9L88.3,14.9c-0.1,0-0.1,0-0.2,0l0,0L88,15c0,0,0.1,0,0.1,0.1
	C88.2,15,88.2,15,88.3,14.9C88.3,15,88.3,15,88.3,14.9C88.3,15,88.3,15,88.3,14.9C88.3,15,88.3,15,88.3,14.9
	C88.3,15,88.3,15,88.3,14.9C88.3,15,88.3,15,88.3,14.9C88.3,15,88.3,15,88.3,14.9C88.3,15,88.3,15,88.3,14.9L88.3,14.9
	C88.3,15,88.3,15,88.3,14.9z M90.1,14.9h-1.7V15h1.7V14.9z M92.9,14.9H90V15L92.9,14.9L92.9,14.9z M93.1,14.9
	C93.1,14.9,93,14.9,93.1,14.9C93,14.9,93,14.9,93.1,14.9L93.1,14.9L93.1,14.9L93.1,14.9L93.1,14.9L93.1,14.9L93.1,14.9L93.1,14.9
	L93.1,14.9L93.1,14.9L93.1,14.9L93.1,14.9L93.1,14.9L93.1,14.9L93.1,14.9L93.1,14.9L93.1,14.9C93,14.9,93,14.9,93.1,14.9
	C93.1,15,93.1,15,93.1,14.9L93.1,14.9z M93.2,14.7C93.1,14.7,93.1,14.7,93.2,14.7L93.2,14.7L93.2,14.7
	C93.1,14.7,93.1,14.7,93.2,14.7C93.1,14.7,93.1,14.7,93.2,14.7C93.1,14.7,93.1,14.7,93.2,14.7C93.1,14.7,93.1,14.7,93.2,14.7
	C93.1,14.7,93.1,14.7,93.2,14.7C93.1,14.7,93.1,14.7,93.2,14.7c-0.1,0.1-0.1,0.2-0.1,0.2l0.1,0.1C93.2,14.9,93.2,14.8,93.2,14.7
	L93.2,14.7L93.2,14.7L93.2,14.7L93.2,14.7L93.2,14.7L93.2,14.7L93.2,14.7L93.2,14.7L93.2,14.7z M93.1,14.5c0,0,0,0.1,0.1,0.1
	c0,0,0,0,0,0.1l0,0l0,0l0,0l0,0l0,0l0,0l0,0l0,0c0.1,0,0.1,0,0.1,0l0,0l0,0l0,0l0,0l0,0l0,0l0,0c0,0,0,0,0-0.1
	C93.2,14.5,93.2,14.4,93.1,14.5L93.1,14.5z M92.7,14.3L92.7,14.3L92.7,14.3L92.7,14.3L92.7,14.3L92.7,14.3L92.7,14.3L92.7,14.3
	L92.7,14.3c0.1,0.1,0.1,0.1,0.1,0.1h0.1H93l0.1-0.1c0,0-0.1,0-0.1-0.1h-0.1C92.9,14.3,92.8,14.3,92.7,14.3
	C92.8,14.3,92.8,14.2,92.7,14.3C92.7,14.2,92.7,14.2,92.7,14.3C92.7,14.2,92.7,14.2,92.7,14.3C92.7,14.2,92.7,14.2,92.7,14.3
	C92.7,14.2,92.7,14.2,92.7,14.3L92.7,14.3L92.7,14.3C92.7,14.2,92.7,14.2,92.7,14.3z M91.5,13.6c0.2,0.4,0.5,0.6,1.2,0.7v-0.1
	C92.1,14.1,91.8,13.9,91.5,13.6L91.5,13.6z M91.4,11.2c0,0.7,0,1.2,0,1.6c0,0.2,0,0.3,0,0.5c0,0.1,0,0.2,0.1,0.3h0.1
	c0-0.1,0-0.1-0.1-0.3c0-0.1,0-0.3,0-0.5C91.5,12.5,91.5,11.9,91.4,11.2L91.4,11.2z M91.4,9.2v2.1h0.1L91.4,9.2L91.4,9.2z M91.7,9.3
	c-0.1,0-0.1-0.1-0.2-0.1v0.1C91.5,9.3,91.6,9.3,91.7,9.3L91.7,9.3z M94,9.8c-0.8,0-1.3-0.1-1.6-0.2c-0.3-0.1-0.5-0.2-0.7-0.3
	l-0.1,0.1c0.2,0.1,0.4,0.3,0.7,0.4C92.7,9.8,93.2,9.9,94,9.8L94,9.8z M97.6,8.1c-0.7,1-1.8,1.8-3.6,1.7v0.1C95.9,10,97,9.1,97.6,8.1
	L97.6,8.1z M98,4c0.5,1.6,0.2,3.1-0.4,4.1l0.1,0.1C98.4,7.2,98.6,5.6,98,4L98,4z M94.1,1.3c2,0.1,3.4,1.1,3.9,2.7h0.1
	C97.6,2.3,96.2,1.3,94.1,1.3L94.1,1.3z M90.6,1.4c0.9,0,2.4-0.1,3.5,0V1.3C93,1.2,91.5,1.2,90.6,1.4L90.6,1.4z M90.4,1.4h0.2V1.3
	L90.4,1.4L90.4,1.4z M88.2,1.5c0.5,0,1.4-0.1,2.2-0.2V1.2C89.6,1.3,88.7,1.4,88.2,1.5L88.2,1.5z M88.2,1.5L88.2,1.5L88.2,1.5
	L88.2,1.5L88.2,1.5z M88.1,1.6L88.1,1.6L88.1,1.6l0.1-0.1c-0.1,0-0.1,0-0.1,0C88,1.5,88,1.5,88.1,1.6L88.1,1.6z M88,1.7
	C88.1,1.7,88.1,1.7,88,1.7C88.1,1.7,88.1,1.7,88,1.7C88.1,1.7,88.1,1.7,88,1.7C88.1,1.7,88.1,1.7,88,1.7C88.1,1.7,88.1,1.7,88,1.7
	C88.1,1.7,88.1,1.7,88,1.7C88.1,1.7,88.1,1.7,88,1.7C88.1,1.7,88.1,1.7,88,1.7C88.1,1.7,88.1,1.7,88,1.7C88.1,1.6,88.1,1.6,88,1.7
	V1.5C88,1.6,88,1.6,88,1.7C88,1.6,88,1.7,88,1.7L88,1.7L88,1.7L88,1.7L88,1.7L88,1.7L88,1.7L88,1.7L88,1.7z M96.4,5.5
	c0,0.7,0,1.8-0.8,2.5l0.1,0.1C96.5,7.4,96.5,6.2,96.4,5.5C96.5,5.5,96.4,5.5,96.4,5.5z M93.3,2.3c1.3,0,2,0.5,2.4,1.2s0.6,1.5,0.6,2
	h0.1c0-0.6-0.2-1.4-0.6-2.1C95.4,2.8,94.6,2.2,93.3,2.3L93.3,2.3z M91.6,3.2c0-0.4,0.3-0.6,0.7-0.7c0.4-0.1,0.8-0.1,1.1-0.1V2.3
	c-0.3,0-0.8,0-1.1,0.1C91.8,2.5,91.5,2.7,91.6,3.2L91.6,3.2z M91.5,5.9c0-0.8,0-1.4,0-1.9c0-0.2,0-0.4,0-0.6c0-0.1,0-0.2,0-0.3h-0.1
	c0,0,0,0.1,0,0.3c0,0.1,0,0.3,0,0.6C91.4,4.5,91.4,5.1,91.5,5.9L91.5,5.9z M91.5,8.4V5.9h-0.1L91.5,8.4L91.5,8.4z M91.8,8.5
	l-0.3-0.1v0.1H91.8L91.8,8.5z M91.8,8.5L91.8,8.5L91.8,8.5L91.8,8.5L91.8,8.5z M92.4,8.7c-0.3-0.1-0.5-0.2-0.6-0.2v0.1
	C91.9,8.6,92.1,8.7,92.4,8.7L92.4,8.7z M95.6,8c-0.4,0.3-0.9,0.6-1.5,0.7c-0.6,0.1-1.2,0.1-1.7,0v0.1c0.5,0.1,1.1,0.1,1.7,0
	S95.3,8.4,95.6,8L95.6,8z M80.1,1.3C80,1.3,80,1.3,80.1,1.3L80.1,1.3L80.1,1.3C80,1.3,80,1.3,80.1,1.3C80,1.3,80,1.3,80.1,1.3
	C80,1.3,80,1.3,80.1,1.3C80,1.3,80,1.3,80.1,1.3C80,1.3,80,1.3,80.1,1.3C80,1.3,80,1.3,80.1,1.3c-0.2,0-0.2,0.1-0.3,0.1v0.1
	C79.9,1.5,79.9,1.4,80.1,1.3C80,1.4,80,1.4,80.1,1.3C80.1,1.4,80.1,1.4,80.1,1.3C80.1,1.4,80.1,1.4,80.1,1.3
	C80.1,1.4,80.1,1.4,80.1,1.3C80.1,1.4,80.1,1.4,80.1,1.3C80.1,1.4,80.1,1.4,80.1,1.3C80.1,1.4,80.1,1.4,80.1,1.3L80.1,1.3
	C80.1,1.4,80.1,1.4,80.1,1.3z M80.5,1.3l-0.1-0.1h-0.1h-0.1l0,0l0,0l0,0l0,0l0,0l0,0l0,0l0,0l0,0l0,0l0,0l0,0l0,0l0,0l0,0l0,0h0.1
	h0.1C80.4,1.3,80.4,1.3,80.5,1.3L80.5,1.3z M80.9,2.3c-0.1-0.3-0.2-0.6-0.3-0.7c0-0.1-0.1-0.1-0.1-0.2l0,0l0,0l-0.1,0.1l0,0l0,0l0,0
	c0,0,0,0.1,0.1,0.2C80.6,1.7,80.6,2,80.9,2.3L80.9,2.3z M81,2.7c-0.1-0.2-0.1-0.3-0.2-0.4h-0.1C80.8,2.4,80.9,2.6,81,2.7L81,2.7z
	 M82.2,5.8C81.9,5,81.4,3.7,81,2.7h-0.1C81.3,3.7,81.9,5.1,82.2,5.8L82.2,5.8z M83.5,9c-0.4-1-1-2.5-1.3-3.2h-0.1
	C82.4,6.5,83,8,83.5,9L83.5,9z M84.6,12c-0.2-0.6-0.7-1.9-1.2-3h-0.1C83.8,10.1,84.3,11.4,84.6,12L84.6,12z M85.2,13.3
	c0,0,0-0.1-0.1-0.2c0-0.1-0.1-0.2-0.1-0.3c-0.1-0.2-0.2-0.5-0.4-0.8h-0.1c0.1,0.3,0.2,0.6,0.4,0.8c0.1,0.1,0.1,0.2,0.2,0.3
	C85.1,13.2,85.1,13.3,85.2,13.3L85.2,13.3z M85.4,13.5c0-0.1-0.1-0.1-0.1-0.2l-0.1,0.1C85.2,13.4,85.2,13.4,85.4,13.5L85.4,13.5z
	 M86.2,14.2c-0.5-0.1-0.7-0.4-0.9-0.7l-0.1,0.1C85.5,13.8,85.7,14.2,86.2,14.2L86.2,14.2z M86.7,14.3C86.7,14.3,86.6,14.3,86.7,14.3
	c-0.1,0-0.1,0-0.1-0.1h-0.1c-0.1,0-0.1,0-0.1,0l0,0l0,0l0,0l0,0l0,0l0,0l0,0l0,0l0,0l0,0l0,0l0,0l0,0l0,0l0,0l0,0h0.1h0.1
	C86.6,14.4,86.6,14.4,86.7,14.3C86.6,14.4,86.6,14.4,86.7,14.3C86.6,14.4,86.6,14.4,86.7,14.3L86.7,14.3z M86.7,14.5
	C86.8,14.5,86.8,14.5,86.7,14.5L86.7,14.5L86.7,14.5C86.8,14.5,86.8,14.5,86.7,14.5C86.8,14.5,86.8,14.5,86.7,14.5
	C86.8,14.5,86.8,14.5,86.7,14.5C86.8,14.5,86.8,14.5,86.7,14.5C86.8,14.5,86.8,14.5,86.7,14.5C86.8,14.5,86.7,14.5,86.7,14.5
	c0-0.1,0-0.2,0-0.2V14.5C86.6,14.4,86.6,14.5,86.7,14.5L86.7,14.5L86.7,14.5L86.7,14.5L86.7,14.5L86.7,14.5L86.7,14.5L86.7,14.5
	L86.7,14.5L86.7,14.5z M86.8,14.7v-0.2h-0.1L86.8,14.7L86.8,14.7z M86.7,14.9C86.7,14.8,86.7,14.8,86.7,14.9c0-0.1,0-0.1,0-0.1l0,0
	l0,0l0,0l0,0l0,0l0,0l0,0l0,0l0,0l0,0l0,0l0,0l0,0l0,0l0,0l0,0l0,0C86.6,14.8,86.6,14.8,86.7,14.9L86.7,14.9z M86.5,14.9L86.5,14.9
	L86.5,14.9L86.5,14.9L86.5,14.9L86.5,14.9L86.5,14.9L86.5,14.9L86.5,14.9C86.6,14.9,86.6,14.9,86.5,14.9
	C86.6,14.9,86.6,14.9,86.5,14.9c0.1,0,0.1,0,0.2,0l-0.1-0.1C86.6,14.8,86.6,14.8,86.5,14.9C86.6,14.8,86.6,14.8,86.5,14.9
	C86.6,14.8,86.6,14.8,86.5,14.9C86.5,14.8,86.5,14.8,86.5,14.9C86.5,14.8,86.5,14.8,86.5,14.9C86.5,14.8,86.5,14.8,86.5,14.9
	C86.5,14.8,86.5,14.8,86.5,14.9L86.5,14.9C86.5,14.8,86.5,14.8,86.5,14.9L86.5,14.9C86.5,14.8,86.5,14.8,86.5,14.9z M83.6,14.9h2.9
	v-0.1h-2.9V14.9z M81.6,14.9h2.1v-0.1h-2.1V14.9z M81.4,14.9C81.5,14.9,81.5,14.9,81.4,14.9C81.5,14.9,81.5,14.9,81.4,14.9
	L81.4,14.9L81.4,14.9L81.4,14.9L81.4,14.9L81.4,14.9L81.4,14.9L81.4,14.9L81.4,14.9L81.4,14.9L81.4,14.9L81.4,14.9L81.4,14.9
	L81.4,14.9L81.4,14.9L81.4,14.9L81.4,14.9L81.4,14.9C81.5,14.8,81.5,14.8,81.4,14.9L81.4,14.9z M81.4,14.7L81.4,14.7L81.4,14.7
	L81.4,14.7L81.4,14.7L81.4,14.7L81.4,14.7L81.4,14.7C81.4,14.7,81.4,14.8,81.4,14.7C81.4,14.8,81.4,14.8,81.4,14.7
	c0,0.1,0,0.1,0,0.2V14.7C81.5,14.8,81.5,14.8,81.4,14.7C81.5,14.7,81.5,14.7,81.4,14.7C81.5,14.7,81.5,14.7,81.4,14.7
	C81.5,14.7,81.5,14.7,81.4,14.7C81.5,14.7,81.5,14.7,81.4,14.7L81.4,14.7L81.4,14.7L81.4,14.7L81.4,14.7
	C81.5,14.7,81.5,14.7,81.4,14.7z M81.4,14.6v0.2h0.1L81.4,14.6L81.4,14.6z M81.4,14.3c0,0.1-0.1,0.1-0.1,0.2c0,0,0,0,0,0.1l0,0l0,0
	l0,0l0,0l0,0l0,0l0,0l0,0l0,0l0,0l0,0l0,0l0,0l0,0l0,0l0,0l0,0C81.5,14.5,81.5,14.4,81.4,14.3L81.4,14.3z M81.9,14.3
	C81.9,14.2,81.9,14.2,81.9,14.3L81.9,14.3C81.9,14.2,81.9,14.2,81.9,14.3C81.9,14.2,81.9,14.2,81.9,14.3
	C81.9,14.2,81.9,14.2,81.9,14.3C81.9,14.2,81.9,14.2,81.9,14.3C81.9,14.2,81.9,14.2,81.9,14.3C81.9,14.2,81.9,14.2,81.9,14.3
	c-0.1,0-0.1,0-0.2,0h-0.1c0,0-0.1,0-0.1,0.1l0.1,0.1c0,0,0,0,0.1,0h0.1C81.8,14.3,81.8,14.3,81.9,14.3L81.9,14.3L81.9,14.3
	L81.9,14.3L81.9,14.3L81.9,14.3L81.9,14.3L81.9,14.3L81.9,14.3z M82.8,13.4c-0.1,0.3-0.4,0.8-1,0.8v0.1
	C82.5,14.2,82.8,13.7,82.8,13.4L82.8,13.4z M82.9,13.3C82.9,13.3,82.8,13.4,82.9,13.3L82.9,13.3C82.9,13.4,82.9,13.4,82.9,13.3
	L82.9,13.3z M82.3,11.4c0.3,0.8,0.5,1.2,0.5,1.4c0,0.1,0,0.2,0,0.3s0,0.1-0.1,0.2h0.1c0-0.1,0.1-0.1,0.1-0.2c0-0.1,0-0.2,0-0.3
	C82.9,12.5,82.7,12.1,82.3,11.4L82.3,11.4z M81.7,10.1C81.7,10.1,81.8,10.1,81.7,10.1c0.1,0.1,0.1,0.2,0.2,0.3
	c0.1,0.2,0.2,0.5,0.4,1h0.1c-0.2-0.5-0.3-0.8-0.4-1c0-0.1-0.1-0.2-0.1-0.2C81.8,10.1,81.8,10,81.7,10.1L81.7,10.1z M79.4,10.1
	c0.6,0,1.2,0,1.6,0c0.2,0,0.4,0,0.5,0s0.1,0,0.2,0l0,0l0,0V10l0,0l0,0c0,0-0.1,0-0.2,0s-0.3,0-0.5,0C80.6,10,80,10,79.4,10.1
	L79.4,10.1z M77.1,10.1h2.3V10h-2.3V10.1z M77,10.5l0.1-0.4H77V10.5L77,10.5z M76.2,12.9c0-0.1,0.1-0.5,0.3-0.9
	c0.1-0.4,0.3-1,0.5-1.5h-0.1c-0.2,0.5-0.4,1.1-0.5,1.5S76.2,12.7,76.2,12.9L76.2,12.9z M77.1,14.2c-0.4-0.1-0.7-0.2-0.8-0.5
	c-0.1-0.2-0.1-0.5-0.1-0.8h-0.1c-0.1,0.3,0,0.6,0.1,0.9C76.4,14,76.6,14.2,77.1,14.2L77.1,14.2z M77.5,14.3c0,0-0.1,0-0.1-0.1h-0.1
	h-0.1l0,0l0,0l0,0l0,0l0,0l0,0l0,0l0,0l0,0l0,0l0,0l0,0l0,0l0,0l0,0l0,0h0.1h0.1C77.4,14.4,77.4,14.4,77.5,14.3L77.5,14.3z
	 M77.6,14.6C77.7,14.6,77.7,14.6,77.6,14.6C77.7,14.6,77.7,14.6,77.6,14.6L77.6,14.6C77.7,14.6,77.7,14.6,77.6,14.6
	C77.7,14.6,77.7,14.6,77.6,14.6C77.7,14.6,77.7,14.6,77.6,14.6C77.7,14.6,77.7,14.6,77.6,14.6C77.7,14.5,77.7,14.5,77.6,14.6
	c0-0.1,0-0.1,0-0.1c0-0.1-0.1-0.1-0.1-0.2l-0.1,0.1C77.5,14.4,77.5,14.5,77.6,14.6C77.5,14.5,77.5,14.5,77.6,14.6L77.6,14.6
	L77.6,14.6L77.6,14.6L77.6,14.6L77.6,14.6L77.6,14.6L77.6,14.6L77.6,14.6z M77.7,14.7v-0.2h-0.1L77.7,14.7L77.7,14.7z M77.6,14.9
	C77.6,14.9,77.6,14.8,77.6,14.9c0.1-0.1,0.1-0.1,0.1-0.1l0,0l0,0l0,0l0,0l0,0l0,0l0,0l0,0l0,0l0,0l0,0l0,0l0,0l0,0l0,0l0,0l0,0
	C77.5,14.8,77.5,14.8,77.6,14.9L77.6,14.9z M77.3,14.9L77.3,14.9L77.3,14.9L77.3,14.9L77.3,14.9L77.3,14.9L77.3,14.9L77.3,14.9
	L77.3,14.9C77.4,14.9,77.4,14.9,77.3,14.9c0.1,0.1,0.1,0,0.2,0h0.1l-0.1-0.1l0,0C77.4,14.8,77.4,14.8,77.3,14.9
	C77.4,14.8,77.4,14.8,77.3,14.9C77.3,14.8,77.3,14.8,77.3,14.9C77.3,14.8,77.3,14.8,77.3,14.9C77.3,14.8,77.3,14.8,77.3,14.9
	C77.3,14.8,77.3,14.8,77.3,14.9L77.3,14.9L77.3,14.9L77.3,14.9C77.3,14.8,77.3,14.8,77.3,14.9z M75.2,14.9h2.2v-0.1h-2.2V14.9z
	 M73.1,14.9h2.1v-0.1h-2.1V14.9z M72.9,14.9L72.9,14.9L72.9,14.9L72.9,14.9L72.9,14.9L72.9,14.9L72.9,14.9L72.9,14.9L72.9,14.9
	L72.9,14.9c0.1,0,0.1,0,0.1-0.1l0,0l0,0l0,0l0,0l0,0l0,0l0,0l0,0l0,0C73,14.8,73,14.8,72.9,14.9L72.9,14.9z M72.8,14.8L72.8,14.8
	L72.8,14.8L72.8,14.8L72.8,14.8L72.8,14.8L72.8,14.8L72.8,14.8L72.8,14.8L72.8,14.8c0,0.1,0,0.1,0.1,0.1L72.8,14.8
	C72.9,14.8,72.9,14.8,72.8,14.8C72.9,14.8,72.9,14.8,72.8,14.8C72.9,14.8,72.9,14.8,72.8,14.8C72.9,14.7,72.9,14.7,72.8,14.8
	C72.9,14.7,72.9,14.7,72.8,14.8C72.9,14.7,72.9,14.7,72.8,14.8L72.8,14.8C72.9,14.8,72.9,14.8,72.8,14.8L72.8,14.8
	C72.9,14.8,72.9,14.8,72.8,14.8z M72.8,14.6v0.1h0.1L72.8,14.6L72.8,14.6z M72.9,14.4c-0.1,0.1-0.1,0.1-0.1,0.2c0,0,0,0,0,0.1l0,0
	l0,0l0,0l0,0l0,0l0,0l0,0l0,0l0,0l0,0l0,0l0,0l0,0l0,0l0,0l0,0l0,0C72.9,14.5,72.9,14.5,72.9,14.4L72.9,14.4z M73.4,14.3
	C73.4,14.2,73.4,14.2,73.4,14.3L73.4,14.3L73.4,14.3C73.4,14.2,73.4,14.2,73.4,14.3C73.4,14.2,73.4,14.2,73.4,14.3
	C73.4,14.2,73.4,14.2,73.4,14.3C73.4,14.2,73.4,14.2,73.4,14.3C73.4,14.2,73.3,14.2,73.4,14.3c-0.1,0-0.1,0-0.2,0h-0.1
	c0,0-0.1,0-0.1,0.1l0.1,0.1c0,0,0.1,0,0.1-0.1h0.1C73.3,14.3,73.3,14.3,73.4,14.3L73.4,14.3L73.4,14.3L73.4,14.3L73.4,14.3
	L73.4,14.3L73.4,14.3L73.4,14.3L73.4,14.3z M74.4,13.2c-0.1,0.2-0.2,0.4-0.4,0.6c-0.2,0.2-0.4,0.4-0.7,0.4v0.1
	c0.3,0,0.5-0.2,0.7-0.4C74.3,13.7,74.4,13.4,74.4,13.2L74.4,13.2z M74.5,13.1C74.4,13.1,74.4,13.2,74.5,13.1v0.1
	C74.5,13.2,74.5,13.2,74.5,13.1L74.5,13.1z M75.2,11.4c-0.2,0.4-0.3,0.8-0.5,1.1c-0.1,0.3-0.2,0.6-0.3,0.6h0.1
	c0-0.1,0.1-0.3,0.3-0.6S75.1,11.8,75.2,11.4L75.2,11.4z M76,9.3c-0.1,0.3-0.5,1.2-0.8,2.1h0.1C75.6,10.6,76,9.6,76,9.3L76,9.3z
	 M77.4,5.7c-0.6,1.5-1,2.5-1.4,3.6h0.1C76.5,8.3,76.9,7.3,77.4,5.7L77.4,5.7z M78.5,3c-0.3,0.7-0.8,1.9-1.1,2.7h0.1
	C77.9,4.9,78.4,3.7,78.5,3L78.5,3z M79,1.8L78.5,3h0.1L79,1.8L79,1.8z M79.7,1.4L79,1.7v0.1L79.7,1.4L79.7,1.4z M80,5.3
	c-0.1-0.2-0.3-0.6-0.4-0.9h-0.1C79.6,4.7,79.8,5.1,80,5.3L80,5.3z M80.5,6.7c-0.2-0.5-0.5-1.2-0.6-1.4h-0.1
	C80,5.5,80.2,6.2,80.5,6.7L80.5,6.7z M81.1,8.1c-0.1-0.3-0.4-0.9-0.6-1.5h-0.1C80.7,7.2,80.9,7.9,81.1,8.1L81.1,8.1z M81.3,8.7
	C81.3,8.7,81.3,8.6,81.3,8.7C81.3,8.6,81.3,8.6,81.3,8.7C81.3,8.6,81.3,8.6,81.3,8.7c0-0.1,0-0.1-0.1-0.2c0-0.1-0.1-0.2-0.1-0.3H81
	c0.1,0.1,0.1,0.3,0.1,0.3v0.1l0,0C81.2,8.7,81.2,8.7,81.3,8.7C81.2,8.7,81.2,8.7,81.3,8.7L81.3,8.7z M79.5,8.7c0.5,0,1,0,1.3,0
	c0.2,0,0.3,0,0.4,0h0.1l0,0l0,0l0,0l0,0h-0.1l0,0l0,0l0,0l0,0h-0.1c-0.1,0-0.2,0-0.4,0C80.4,8.6,80,8.6,79.5,8.7L79.5,8.7z
	 M77.6,8.6C77.6,8.6,77.6,8.7,77.6,8.6C77.6,8.7,77.6,8.7,77.6,8.6C77.6,8.7,77.6,8.7,77.6,8.6c0.1,0.1,0.1,0.1,0.2,0.1s0.2,0,0.4,0
	c0.3,0,0.8,0,1.4,0V8.6c-0.6,0-1,0-1.4,0c-0.2,0-0.3,0-0.4,0S77.7,8.6,77.6,8.6L77.6,8.6L77.6,8.6L77.6,8.6L77.6,8.6
	C77.6,8.6,77.7,8.6,77.6,8.6L77.6,8.6z M77.6,8.3c0,0.1,0,0.1-0.1,0.2v0.1c0,0,0,0,0,0.1h0.1l0,0l0,0l0,0c0,0,0,0,0-0.1
	C77.7,8.5,77.7,8.4,77.6,8.3L77.6,8.3z M78.9,4.6c-0.8,2.4-1.2,3.5-1.3,3.7h0.1C77.8,8.1,78.2,7.1,78.9,4.6L78.9,4.6z M79.2,3.9
	L79.2,3.9L79.2,3.9c-0.1,0.1-0.1,0.2-0.1,0.2c0,0.1-0.1,0.3-0.2,0.5H79c0.1-0.2,0.1-0.4,0.2-0.5C79.2,4,79.2,4,79.2,3.9
	C79.3,4,79.3,4,79.2,3.9C79.3,3.9,79.3,3.9,79.2,3.9L79.2,3.9z M79.6,4.4c-0.1-0.2-0.2-0.4-0.2-0.5c0,0,0,0,0-0.1c0,0,0,0-0.1,0
	c0,0,0,0-0.1,0l0,0l0.1,0.1l0,0l0,0l0,0l0,0C79.4,4,79.4,4.2,79.6,4.4L79.6,4.4z"/>
<rect y="0" class="st1" width="98.1" height="16"/>
<text transform="matrix(1 0 0 1 7.4354 11.3565)" class="st2 st3 st4">FOUNDRYSWAP</text>
</svg>
